HIERARCHY
ROOT Hips
{
    OFFSET 0.000000 0.000000 0.000000
    CHANNELS 6 Xposition Yposition Zposition Zrotation Xrotation Yrotation
    JOINT Spine
    {
        OFFSET -0.000000 7.897928 0.000000
        CHANNELS 3 Zrotation Xrotation Yrotation
        JOINT Spine1
        {
            OFFSET -0.000000 22.881742 0.000000
            CHANNELS 3 Zrotation Xrotation Yrotation
            JOINT Neck
            {
                OFFSET -0.000000 22.787771 2.071616
                CHANNELS 3 Zrotation Xrotation Yrotation
                JOINT Head
                {
                    OFFSET -0.000000 13.484266 -1.926324
                    CHANNELS 3 Zrotation Xrotation Yrotation
                    End Site
                    {
                        OFFSET -0.000000 24.079046 0.000000
                    }
                }
            }
            JOINT LeftShoulder
            {
                OFFSET 3.854963 21.096247 -0.110468
                CHANNELS 3 Zrotation Xrotation Yrotation
                JOINT LeftArm
                {
                    OFFSET 10.572188 0.000000 0.000000
                    CHANNELS 3 Zrotation Xrotation Yrotation
                    JOINT LeftForeArm
                    {
                        OFFSET 34.932854 0.000000 0.000000
                        CHANNELS 3 Zrotation Xrotation Yrotation
                        JOINT LeftHand
                        {
                            OFFSET 23.279285 0.000000 0.000000
                            CHANNELS 3 Zrotation Xrotation Yrotation
                            End Site
                            {
                                OFFSET 14.447429 0.000000 0.000000
                            }
                        }
                    }
                }
            }
            JOINT RightShoulder
            {
                OFFSET -3.825334 21.096247 -0.110468
                CHANNELS 3 Zrotation Xrotation Yrotation
                JOINT RightArm
                {
                    OFFSET -10.572188 0.000000 0.000000
                    CHANNELS 3 Zrotation Xrotation Yrotation
                    JOINT RightForeArm
                    {
                        OFFSET -34.932854 0.000000 0.000000
                        CHANNELS 3 Zrotation Xrotation Yrotation
                        JOINT RightHand
                        {
                            OFFSET -23.279285 0.000000 0.000000
                            CHANNELS 3 Zrotation Xrotation Yrotation
                            End Site
                            {
                                OFFSET -14.447429 0.000000 0.000000
                            }
                        }
                    }
                }
            }
        }
    }
    JOINT LeftUpLeg
    {
        OFFSET 9.631618 0.000000 0.000000
        CHANNELS 3 Zrotation Xrotation Yrotation
        JOINT LeftLeg
        {
            OFFSET -0.000000 -35.385456 0.000000
            CHANNELS 3 Zrotation Xrotation Yrotation
            JOINT LeftFoot
            {
                OFFSET -0.000000 -43.284000 0.000000
                CHANNELS 3 Zrotation Xrotation Yrotation
                JOINT LeftToeBase
                {
                    OFFSET -0.000000 -6.260552 14.447429
                    CHANNELS 3 Zrotation Xrotation Yrotation
                    End Site
                    {
                        OFFSET -0.000000 0.000000 3.852648
                    }
                }
            }
        }
    }
    JOINT RightUpLeg
    {
        OFFSET -9.631618 0.000000 0.000000
        CHANNELS 3 Zrotation Xrotation Yrotation
        JOINT RightLeg
        {
            OFFSET -0.000000 -35.385456 0.000000
            CHANNELS 3 Zrotation Xrotation Yrotation
            JOINT RightFoot
            {
                OFFSET -0.000000 -43.284000 0.000000
                CHANNELS 3 Zrotation Xrotation Yrotation
                JOINT RightToeBase
                {
                    OFFSET -0.000000 -6.260552 14.447429
                    CHANNELS 3 Zrotation Xrotation Yrotation
                    End Site
                    {
                        OFFSET -0.000000 0.000000 3.852648
                    }
                }
            }
        }
    }
}
MOTION
Frames:    14
Frame Time:    0.008333
-2.139295    88.413742    15.132531    -9.816031    -9.817939    83.401405    -0.743044    0.575899    -1.655352    9.223728    0.213492    -1.676353    1.292626    6.711850    -10.680798    16.209385    -7.617655    -7.881474    3.223058    9.734099    8.868321    -52.295895    53.574207    0.167623    -2.236075    -18.965687    -46.347782    -13.780903    -20.084465    1.905498    0.788671    9.781695    5.668389    49.153706    41.198654    3.576072    -1.345315    -17.740774    19.098673    -1.680140    -17.513950    -0.806556    6.065402    -23.604338    0.632689    -9.266253    34.846310    -8.308953    7.241022    -9.810878    24.875917    0.000000    0.000000    0.000000    -5.221945    -20.407084    1.790465    7.433383    24.271088    -4.902491    10.818306    5.223123    -5.749220    0.000000    0.000000    0.000000    
-2.481102    87.005768    15.969123    -9.806372    -10.029116    83.727249    -1.411890    1.236804    -1.659142    10.525565    -0.523190    -1.626235    0.928285    6.719430    -10.892546    16.123978    -7.955719    -8.042203    1.704025    9.785350    8.095337    -51.097271    53.257385    -0.726275    -2.623029    -19.061760    -44.726894    -13.540069    -20.132210    0.483474    0.618960    9.484881    5.563312    49.585445    40.405346    3.503585    -0.655201    -18.282724    17.994690    -1.277491    -18.188566    0.399374    6.850130    -25.317318    0.481169    -9.999335    38.195274    -9.155064    9.938792    -12.849931    26.616024    0.000000    0.000000    0.000000    -5.303140    -21.464972    1.969342    8.779858    26.443285    -4.972715    10.688521    0.429546    -5.617634    0.000000    0.000000    0.000000    
-2.927085    85.728233    16.794834    -10.003473    -10.213356    84.109367    -1.984218    1.647952    -1.473972    11.545523    -1.114624    -1.389818    0.211397    6.547277    -11.323025    17.086145    -7.962379    -8.225089    0.495587    10.489026    6.881063    -49.272629    52.687668    -3.050151    -2.887188    -19.547449    -42.321964    -13.082789    -20.489115    -1.004457    1.013061    9.130655    5.115063    49.685184    39.597309    3.504045    -0.045879    -18.746029    16.631460    -0.360823    -18.744286    1.508169    7.571528    -27.190516    0.695816    -10.437451    41.279797    -10.059048    12.329635    -15.391958    28.263142    0.000000    0.000000    0.000000    -5.327531    -23.112812    1.635976    9.972239    29.156300    -4.418741    9.749125    -3.785318    -5.911452    0.000000    0.000000    0.000000    
-3.340783    84.687943    17.514738    -10.275929    -10.374582    84.423035    -1.313616    1.166140    -1.762531    10.390895    -0.082014    -1.768476    -0.031002    5.632593    -11.315895    18.244823    -7.740570    -7.983848    0.763539    10.471596    7.067640    -47.532265    53.002514    -5.810257    -3.223352    -20.549677    -40.158184    -12.538455    -21.450485    -1.940845    1.645767    8.737706    5.654768    49.705318    38.573711    4.609457    0.310366    -19.202951    15.072169    0.991621    -19.225212    2.032603    8.148031    -28.676092    0.983483    -10.601108    43.510021    -10.520405    14.352173    -17.391905    29.326532    0.000000    0.000000    0.000000    -5.342001    -24.988216    1.374099    11.342701    31.945675    -5.493987    8.739771    -6.876560    -5.433084    0.000000    0.000000    0.000000    
-3.666126    83.866409    18.080730    -10.639040    -10.323958    84.608856    -0.482641    0.845247    -1.929051    8.646858    0.025614    -1.934560    0.102350    5.736290    -11.291837    19.332941    -7.957435    -7.706235    1.287555    10.756707    6.730629    -46.695740    53.189579    -7.685727    -3.134088    -21.776730    -37.797989    -12.723400    -22.510849    -2.513597    2.810593    8.983947    6.446072    49.742130    37.762272    5.182472    0.536777    -19.555233    13.979970    1.595742    -19.602367    1.140708    8.235540    -29.707264    1.284676    -10.246866    44.831608    -10.985099    16.027424    -18.982656    30.218700    0.000000    0.000000    0.000000    -5.616079    -26.914749    0.976392    12.730838    34.452488    -7.587265    7.969948    -8.903788    -4.237528    0.000000    0.000000    0.000000    
-3.835342    83.178017    18.501320    -10.835671    -10.030284    84.688591    0.335816    0.483635    -2.086662    6.730029    0.226224    -2.098567    0.666071    5.551875    -11.233644    19.284836    -7.799067    -7.737882    1.520244    10.863816    6.555263    -46.396687    52.991138    -8.585936    -2.622607    -22.768240    -36.220490    -13.108068    -23.365559    -1.812685    3.695627    9.519917    7.198599    49.722897    37.357323    6.113801    0.430805    -19.677874    13.084044    2.815520    -19.720613    0.166609    7.792446    -30.110470    1.398735    -9.528925    45.455341    -11.453398    17.598595    -20.290449    31.056276    0.000000    0.000000    0.000000    -6.184678    -28.471035    0.474543    13.875263    36.606983    -9.222940    7.451210    -10.492677    -3.081207    0.000000    0.000000    0.000000    
-3.984402    82.596901    18.825880    -10.860790    -9.507060    84.562424    0.553343    0.290947    -2.025556    5.491761    0.432434    -2.044919    0.408192    5.135434    -11.444693    20.162964    -7.086459    -7.871696    1.661751    10.827464    6.300364    -46.469261    52.749062    -9.254301    -1.981321    -23.331255    -35.002609    -13.292057    -23.760448    -1.341109    4.025220    10.232447    7.481441    49.428310    37.378963    7.557557    0.295184    -19.762211    12.622885    4.351344    -19.828793    -1.000999    7.055903    -30.295959    1.503605    -8.659274    45.915764    -11.911318    18.927273    -21.190403    31.791342    0.000000    0.000000    0.000000    -6.815303    -29.708054    -0.124612    14.417350    38.563652    -9.852092    7.112106    -11.957495    -2.245119    0.000000    0.000000    0.000000    
-4.099216    82.111298    19.119392    -10.675974    -8.936921    84.398003    0.348819    0.398420    -1.842855    4.930175    0.469201    -1.861834    0.923407    5.589456    -11.306602    19.635414    -8.171432    -7.703086    1.493586    10.865454    5.927898    -46.593365    52.415813    -9.898540    -1.194302    -23.485737    -33.946484    -13.060970    -23.703362    -1.106872    3.989449    10.726036    7.375263    49.187180    38.196342    8.877308    -0.003829    -19.938068    12.580662    6.129272    -20.026846    -1.770640    6.360786    -30.617594    1.265413    -8.273979    46.717072    -11.567243    19.419306    -21.848703    32.084511    0.000000    0.000000    0.000000    -7.377047    -30.427443    -0.790722    14.585020    40.054565    -9.798925    6.737179    -13.364793    -1.798051    0.000000    0.000000    0.000000    
-4.170526    81.731018    19.403324    -10.243585    -8.404896    84.122910    -0.130745    0.741268    -1.541123    4.896031    0.437159    -1.560681    0.778233    5.823064    -11.489068    19.782513    -8.510624    -7.789591    1.077816    11.066343    5.422245    -46.685532    52.125439    -10.541542    -0.468263    -23.357468    -33.250111    -11.728103    -23.412500    -0.774128    3.803063    10.756705    7.320369    49.327862    39.692677    9.484041    -0.771490    -20.379269    12.750170    8.494330    -20.438578    -2.011270    5.972359    -31.090317    0.672993    -8.898943    48.112129    -9.975883    18.878775    -22.526705    31.771799    0.000000    0.000000    0.000000    -7.525319    -30.655802    -1.385257    13.959922    41.226616    -8.755150    6.370484    -14.736450    -1.830425    0.000000    0.000000    0.000000    
-4.223683    81.462578    19.695204    -9.718189    -7.940537    83.704536    -0.692439    1.152829    -1.179063    5.188119    0.443747    -1.206206    1.019262    5.863845    -11.526906    18.810352    -8.833642    -8.012426    0.422226    11.251988    5.071890    -46.529968    52.024464    -11.337973    -0.260143    -23.140509    -32.970333    -8.991416    -23.201488    -0.130883    3.489078    10.643203    7.279918    49.268105    41.185474    10.096746    -0.848952    -20.538334    13.295877    9.165705    -20.595835    -1.999285    6.020962    -31.693743    -0.054607    -10.561996    49.828941    -7.966752    17.795849    -22.966642    31.582689    0.000000    0.000000    0.000000    -7.219861    -30.512960    -1.573780    12.791536    41.921276    -7.390356    6.069358    -16.035952    -2.030817    0.000000    0.000000    0.000000    
-4.186000    81.311035    20.009853    -9.072490    -7.645724    83.390121    -0.967324    1.441270    -0.976099    5.232999    0.746654    -1.022405    0.960318    6.003627    -11.503769    18.472589    -9.073529    -8.017891    -0.075771    11.466121    5.040647    -46.207371    52.156025    -12.228539    -0.528703    -22.995525    -33.402348    -4.792750    -23.186855    1.188497    3.238704    10.352429    7.540183    49.463501    43.285515    10.429952    -1.358252    -20.834576    14.115429    8.924487    -20.829082    -2.078470    6.295638    -31.916943    -0.769661    -12.435803    51.138279    -5.854792    16.621101    -23.295599    31.214388    0.000000    0.000000    0.000000    -6.619984    -29.861248    -1.321135    11.651433    42.084824    -5.940112    5.603140    -17.289089    -2.771689    0.000000    0.000000    0.000000    
-4.119732    81.263908    20.329453    -8.492734    -7.399337    83.140488    -1.345847    1.656465    -0.724367    5.557152    0.969697    -0.790943    0.898749    6.002533    -11.492370    17.901497    -8.998519    -8.138315    -0.597589    11.771999    4.950218    -45.874084    52.307823    -13.209445    -0.869011    -23.101753    -34.053032    -2.318820    -23.381500    1.911632    2.980839    10.045518    7.401490    49.359589    45.510670    10.975641    -1.500729    -20.971205    15.170118    7.082137    -20.908165    -2.137037    6.750534    -31.977825    -1.636858    -14.846649    51.982143    -3.736966    15.635584    -23.332962    31.144670    0.000000    0.000000    0.000000    -5.908423    -28.999685    -0.664439    10.602237    41.803841    -4.506932    5.016529    -18.435913    -3.878173    0.000000    0.000000    0.000000    
-3.998710    81.302193    20.589308    -7.886550    -7.122441    82.962219    -1.482095    1.782277    -0.594808    5.441270    1.277102    -0.678541    0.784076    5.990567    -11.489170    17.675594    -8.702967    -8.218554    -0.909624    11.981857    5.082009    -45.603813    52.789463    -14.050457    -1.289818    -23.589884    -35.084652    -0.127034    -23.965515    2.831781    2.904302    9.875171    7.493126    49.177963    47.519333    11.581936    -1.876949    -21.124336    16.148973    5.614147    -20.976484    -2.197571    6.989798    -31.403011    -1.978015    -16.142107    52.020493    -2.949446    15.254310    -23.242529    31.309799    0.000000    0.000000    0.000000    -5.329603    -27.978579    0.248856    9.784044    41.337528    -3.541809    4.710541    -19.325550    -4.834616    0.000000    0.000000    0.000000    
-3.857053    81.448013    20.841011    -7.378227    -6.842152    82.848145    -1.762897    1.782103    -0.349864    5.508595    1.551429    -0.452052    1.157993    5.927903    -11.535430    16.813276    -8.530462    -8.516457    -1.080924    12.176843    4.926107    -45.568283    53.073986    -14.850359    -1.709526    -24.109127    -35.899143    -0.008117    -24.613396    1.832966    2.998481    9.771628    7.107351    48.526176    49.530609    12.433824    -2.069031    -21.275080    17.289154    4.238495    -21.056101    -2.151888    7.068746    -30.519142    -2.066242    -16.591196    51.485706    -2.899603    14.986596    -23.110540    31.449112    0.000000    0.000000    0.000000    -4.840462    -27.010956    1.569786    9.457181    40.681301    -3.095093    4.420763    -19.802778    -5.967095    0.000000    0.000000    0.000000    
